<?xml version="1.0" encoding="UTF-8" standalone="no"?>
<svg
   xmlns:dc="http://purl.org/dc/elements/1.1/"
   xmlns:cc="http://creativecommons.org/ns#"
   xmlns:rdf="http://www.w3.org/1999/02/22-rdf-syntax-ns#"
   xmlns:svg="http://www.w3.org/2000/svg"
   xmlns="http://www.w3.org/2000/svg"
   viewBox="0 0 524.41248 372.04999"
   height="372.04999"
   width="524.41248"
   xml:space="preserve"
   version="1.1"
   id="svg2"><metadata
     id="metadata8"><rdf:RDF><cc:Work
         rdf:about=""><dc:format>image/svg+xml</dc:format><dc:type
           rdf:resource="http://purl.org/dc/dcmitype/StillImage" /><dc:title></dc:title></cc:Work></rdf:RDF></metadata><defs
     id="defs6"><clipPath
       id="clipPath16"
       clipPathUnits="userSpaceOnUse"><path
         id="path18"
         d="m 0,297.64 419.53,0 L 419.53,0 0,0 0,297.64 Z" /></clipPath></defs><g
     transform="matrix(1.25,0,0,-1.25,0,372.05)"
     id="g10"><g
       id="g12"><g
         clip-path="url(#clipPath16)"
         id="g14"><g
           transform="translate(397.3462,230.4017)"
           id="g20"><path
             id="path22"
             style="fill:none;stroke:#231f20;stroke-width:4;stroke-linecap:square;stroke-linejoin:miter;stroke-miterlimit:10;stroke-dasharray:none;stroke-opacity:1"
             d="m 0,0 -30.038,0 c -16.521,0 -30.039,13.517 -30.039,30.038 0,16.521 13.518,30.039 30.039,30.039 l 30.038,0" /></g><g
           transform="translate(187.3623,290.5383)"
           id="g24"><path
             id="path26"
             style="fill:none;stroke:#231f20;stroke-width:4;stroke-linecap:square;stroke-linejoin:miter;stroke-miterlimit:10;stroke-dasharray:none;stroke-opacity:1"
             d="m 0,0 0,-30.038 c 0,-16.521 -13.517,-30.039 -30.038,-30.039 l 0,0 c -16.521,0 -30.038,13.518 -30.038,30.039 l 0,30.038" /></g><g
           transform="translate(232.9039,230.3417)"
           id="g28"><path
             id="path30"
             style="fill:none;stroke:#231f20;stroke-width:4;stroke-linecap:square;stroke-linejoin:miter;stroke-miterlimit:10;stroke-dasharray:none;stroke-opacity:1"
             d="m 0,0 0,30.038 c 0,16.519 13.519,30.039 30.038,30.039 8.256,0 15.767,-3.376 21.211,-8.828 5.452,-5.444 8.828,-12.955 8.828,-21.211 L 60.077,0" /></g><g
           transform="translate(82.4805,186.0491)"
           id="g32"><path
             id="path34"
             style="fill:none;stroke:#231f20;stroke-width:4;stroke-linecap:square;stroke-linejoin:miter;stroke-miterlimit:10;stroke-dasharray:none;stroke-opacity:1"
             d="m 0,0 c 0,-16.59 -13.449,-30.038 -30.038,-30.038 -16.59,0 -30.039,13.448 -30.039,30.038 0,16.59 13.449,30.038 30.039,30.038 C -13.449,30.038 0,16.59 0,0 Z" /></g><g
           transform="translate(397.2862,186.0491)"
           id="g36"><path
             id="path38"
             style="fill:none;stroke:#231f20;stroke-width:4;stroke-linecap:square;stroke-linejoin:miter;stroke-miterlimit:10;stroke-dasharray:none;stroke-opacity:1"
             d="m 0,0 c 0,-16.59 -13.449,-30.038 -30.038,-30.038 -16.59,0 -30.039,13.448 -30.039,30.038 0,16.59 13.449,30.038 30.039,30.038 C -13.449,30.038 0,16.59 0,0 Z" /></g><g
           transform="translate(292.9805,122.2754)"
           id="g40"><path
             id="path42"
             style="fill:none;stroke:#231f20;stroke-width:4;stroke-linecap:square;stroke-linejoin:miter;stroke-miterlimit:10;stroke-dasharray:none;stroke-opacity:1"
             d="m 0,0 c -4.647,11.253 -16.344,19.237 -30.038,19.237 -13.693,0 -25.388,-7.982 -30.037,-19.233 l 0.008,-0.003 13.97,-5.025 38.033,-13.681 8.054,-2.897 0.008,-0.003 c -0.913,-2.211 -2.098,-4.295 -3.516,-6.217 -5.804,-7.863 -15.517,-13.017 -26.52,-13.017 -11.084,0 -20.858,5.23 -26.646,13.19 -1.364,1.875 -2.507,3.902 -3.393,6.047" /></g><g
           transform="translate(397.2938,100.7664)"
           id="g44"><path
             id="path46"
             style="fill:none;stroke:#231f20;stroke-width:4;stroke-linecap:square;stroke-linejoin:miter;stroke-miterlimit:10;stroke-dasharray:none;stroke-opacity:1"
             d="m 0,0 c -4.488,-11.251 -15.781,-19.234 -29.002,-19.234 -8.438,0 -16.09,3.252 -21.689,8.529 -3.176,2.992 -5.691,6.637 -7.315,10.709 -1.336,3.352 -2.069,6.993 -2.069,10.801 0,16.589 13.912,30.038 31.073,30.038 13.223,0 24.516,-7.984 29.004,-19.238 L -57.996,0.003" /></g><g
           transform="translate(127.2858,155.9601)"
           id="g48"><path
             id="path50"
             style="fill:none;stroke:#231f20;stroke-width:4;stroke-linecap:square;stroke-linejoin:miter;stroke-miterlimit:10;stroke-dasharray:none;stroke-opacity:1"
             d="m 0,0 0,31.083 0,0 c 0,13.161 8.012,24.481 19.239,28.993 l 5.023,-13.483 c 0,0 2.745,-7.372 5.776,-15.51 3.735,10.029 7.905,21.224 7.905,21.224 l 2.893,7.77 c 11.228,-4.512 19.24,-15.832 19.24,-28.994 l 0,0 0,-31.083" /></g><g
           transform="translate(232.9039,155.912)"
           id="g52"><path
             id="path54"
             style="fill:none;stroke:#231f20;stroke-width:4;stroke-linecap:square;stroke-linejoin:miter;stroke-miterlimit:10;stroke-dasharray:none;stroke-opacity:1"
             d="m 0,0 0,31.083 c 0,13.161 8.012,24.481 19.239,28.993 l 5.023,-13.483 c 0,0 2.745,-7.372 5.776,-15.51 3.735,10.029 7.905,21.224 7.905,21.224 l 2.893,7.769 C 52.064,55.565 60.077,44.245 60.077,31.083 L 60.077,0" /></g><g
           transform="translate(22.4039,81.4846)"
           id="g56"><path
             id="path58"
             style="fill:none;stroke:#231f20;stroke-width:4;stroke-linecap:square;stroke-linejoin:miter;stroke-miterlimit:10;stroke-dasharray:none;stroke-opacity:1"
             d="m 0,0 0,30.038 0,0 c 0,16.521 13.517,30.039 30.038,30.039 l 0,0 c 16.521,0 30.039,-13.518 30.039,-30.039 L 60.077,0" /></g><g
           transform="translate(22.4039,7.1286)"
           id="g60"><path
             id="path62"
             style="fill:none;stroke:#231f20;stroke-width:4;stroke-linecap:square;stroke-linejoin:miter;stroke-miterlimit:10;stroke-dasharray:none;stroke-opacity:1"
             d="m 0,0 0,30.038 0,0 c 0,16.521 13.517,30.039 30.038,30.039 l 0,0 c 16.521,0 30.039,-13.518 30.039,-30.039 l 0,0 0,-30.038" /></g><g
           transform="translate(187.3623,48.0277)"
           id="g64"><path
             id="path66"
             style="fill:none;stroke:#231f20;stroke-width:4;stroke-linecap:square;stroke-linejoin:miter;stroke-miterlimit:10;stroke-dasharray:none;stroke-opacity:1"
             d="m 0,0 c -4.647,11.253 -16.344,19.238 -30.038,19.238 -13.693,0 -25.388,-7.983 -30.037,-19.234 l 0.008,-0.003 13.97,-5.025 38.033,-13.681 8.054,-2.897 0.008,-0.003 c -0.913,-2.211 -2.098,-4.294 -3.516,-6.216 -5.804,-7.864 -15.517,-13.018 -26.52,-13.018 -11.083,0 -20.858,5.23 -26.646,13.19 -1.364,1.875 -2.506,3.902 -3.392,6.048" /></g><g
           transform="translate(292.9881,26.4222)"
           id="g68"><path
             id="path70"
             style="fill:none;stroke:#231f20;stroke-width:4;stroke-linecap:square;stroke-linejoin:miter;stroke-miterlimit:10;stroke-dasharray:none;stroke-opacity:1"
             d="m 0,0 c -4.488,-11.251 -15.781,-19.234 -29.002,-19.234 -8.438,0 -16.09,3.252 -21.689,8.529 -3.176,2.992 -5.691,6.637 -7.315,10.709 -1.336,3.352 -2.069,6.994 -2.069,10.801 0,16.589 13.912,30.038 31.073,30.038 13.223,0 24.516,-7.984 29.004,-19.238 L -57.997,0.003" /></g></g></g></g></svg>